<mxfile host="app.diagrams.net" modified="2023-11-10T20:05:45.967Z" agent="Mozilla/5.0 (Windows NT 10.0; Win64; x64) AppleWebKit/537.36 (KHTML, like Gecko) Chrome/119.0.0.0 Safari/537.36" etag="B6tL36wKcf3pUGwSEwRt" version="22.1.0" type="device">
  <diagram name="PÃ¡gina-1" id="ouBAouLIbh3GuOVA7e5X">
    <mxGraphModel dx="309" dy="171" grid="1" gridSize="10" guides="1" tooltips="1" connect="1" arrows="1" fold="1" page="1" pageScale="1" pageWidth="827" pageHeight="1169" math="0" shadow="0">
      <root>
        <mxCell id="0" />
        <mxCell id="1" parent="0" />
        <mxCell id="aoY_0zpo7PbWyuWXik9k-2" value="" style="shape=umlLifeline;perimeter=lifelinePerimeter;whiteSpace=wrap;html=1;container=1;dropTarget=0;collapsible=0;recursiveResize=0;outlineConnect=0;portConstraint=eastwest;newEdgeStyle={&quot;curved&quot;:0,&quot;rounded&quot;:0};participant=umlActor;" vertex="1" parent="1">
          <mxGeometry x="50" y="30" width="20" height="300" as="geometry" />
        </mxCell>
        <mxCell id="aoY_0zpo7PbWyuWXik9k-9" value="" style="html=1;points=[[0,0,0,0,5],[0,1,0,0,-5],[1,0,0,0,5],[1,1,0,0,-5]];perimeter=orthogonalPerimeter;outlineConnect=0;targetShapes=umlLifeline;portConstraint=eastwest;newEdgeStyle={&quot;curved&quot;:0,&quot;rounded&quot;:0};" vertex="1" parent="aoY_0zpo7PbWyuWXik9k-2">
          <mxGeometry x="5" y="60" width="10" height="220" as="geometry" />
        </mxCell>
        <mxCell id="aoY_0zpo7PbWyuWXik9k-7" value="Pesquisa" style="shape=umlLifeline;perimeter=lifelinePerimeter;whiteSpace=wrap;html=1;container=1;dropTarget=0;collapsible=0;recursiveResize=0;outlineConnect=0;portConstraint=eastwest;newEdgeStyle={&quot;curved&quot;:0,&quot;rounded&quot;:0};" vertex="1" parent="1">
          <mxGeometry x="120" y="30" width="100" height="300" as="geometry" />
        </mxCell>
        <mxCell id="aoY_0zpo7PbWyuWXik9k-8" value="" style="html=1;points=[[0,0,0,0,5],[0,1,0,0,-5],[1,0,0,0,5],[1,1,0,0,-5]];perimeter=orthogonalPerimeter;outlineConnect=0;targetShapes=umlLifeline;portConstraint=eastwest;newEdgeStyle={&quot;curved&quot;:0,&quot;rounded&quot;:0};" vertex="1" parent="aoY_0zpo7PbWyuWXik9k-7">
          <mxGeometry x="45" y="60" width="10" height="220" as="geometry" />
        </mxCell>
        <mxCell id="aoY_0zpo7PbWyuWXik9k-12" style="edgeStyle=orthogonalEdgeStyle;rounded=0;orthogonalLoop=1;jettySize=auto;html=1;curved=0;exitX=1;exitY=0;exitDx=0;exitDy=5;exitPerimeter=0;entryX=0;entryY=0;entryDx=0;entryDy=5;entryPerimeter=0;" edge="1" parent="1" source="aoY_0zpo7PbWyuWXik9k-9" target="aoY_0zpo7PbWyuWXik9k-8">
          <mxGeometry relative="1" as="geometry">
            <mxPoint x="90" y="100" as="sourcePoint" />
          </mxGeometry>
        </mxCell>
      </root>
    </mxGraphModel>
  </diagram>
</mxfile>
